<?xml version="1.0" encoding="UTF-8"?>
<svg version="1.1" xmlns="http://www.w3.org/2000/svg" width="512" height="512">
<path d="M0 0 C3.83834246 1.58184202 6.26666848 4.02288989 9.17578125 6.9453125 C9.66402878 7.43401825 10.15227631 7.922724 10.65531921 8.42623901 C11.68722198 9.46115667 12.71669944 10.49849751 13.74389648 11.53808594 C15.29174892 13.10400669 16.8472635 14.66196358 18.40429688 16.21875 C23.17073161 21.00269889 27.80193597 25.84833855 32.19604492 30.97998047 C36.09447583 35.34533672 40.33373672 39.39266548 44.5 43.5 C49.9105141 48.83398632 55.21172831 54.16044781 60.15429688 59.93164062 C64.06549052 64.31466081 68.31830624 68.37745325 72.5 72.5 C77.9105141 77.83398632 83.21172831 83.16044781 88.15429688 88.93164062 C92.06549052 93.31466081 96.31830624 97.37745325 100.5 101.5 C105.9105141 106.83398632 111.21172831 112.16044781 116.15429688 117.93164062 C120.06549052 122.31466081 124.31830624 126.37745325 128.5 130.5 C133.9105141 135.83398632 139.21172831 141.16044781 144.15429688 146.93164062 C148.06549052 151.31466081 152.31830624 155.37745325 156.5 159.5 C158.32539339 161.29957453 160.14835671 163.10161769 161.96875 164.90625 C162.76732422 165.69322266 163.56589844 166.48019531 164.38867188 167.29101562 C165.7820375 168.73648916 167.16352936 170.19819461 168.44128323 171.74680901 C171.60059498 175.56973264 174.75026153 178.67951243 178.76966858 181.59634399 C186.24866823 187.32408177 192.78137283 193.33297593 194.43056804 202.94099438 C195.64337208 212.71227603 195.32362728 222.60225985 195.05821109 232.42246199 C194.95301193 237.03905268 194.95483012 241.65574455 194.94337463 246.27334595 C194.90949443 254.01612186 194.80628337 261.75528497 194.65307617 269.49658203 C194.43790407 280.37890734 194.35592553 291.2593633 194.29705322 302.14348865 C194.2509634 309.73045337 194.17274473 317.31714321 194.08873487 324.90377092 C194.06867608 326.73033457 194.04951977 328.55690836 194.03127551 330.38349104 C193.97821545 335.59018392 193.90481886 340.79581299 193.80000496 346.00173187 C193.77102311 347.57003688 193.74825106 349.13847242 193.73252869 350.7069664 C193.52311718 370.29496809 187.41408463 385.8010569 174.01171875 400.125 C169.66944591 404.31189961 164.94206041 407.41670688 159.6875 410.3125 C159.10798584 410.63814941 158.52847168 410.96379883 157.93139648 411.29931641 C146.65417806 417.19949081 134.83090672 417.41718584 122.421875 417.29296875 C120.75751125 417.2873602 119.09314248 417.28309607 117.42877197 417.28010559 C113.08866235 417.26875572 108.74886311 417.23937587 104.40887451 417.20599365 C99.96403194 417.1750778 95.51913829 417.16155469 91.07421875 417.14648438 C82.38267147 417.11449469 73.69137455 417.06342075 65 417 C64.99503478 415.90891685 64.99503478 415.90891685 64.98996925 414.79579163 C64.90846632 397.03152408 64.81628657 379.26734063 64.71247292 361.50318909 C64.66252067 352.9123001 64.616077 344.32141983 64.578125 335.73046875 C64.54500619 328.2356495 64.50506803 320.74090159 64.45720994 313.24616146 C64.43214084 309.28407593 64.41030384 305.3220365 64.39665604 301.3598938 C64.38365518 297.61702309 64.36141498 293.87431217 64.33261681 290.13153076 C64.31947565 288.130769 64.31565475 286.1299525 64.31230164 284.12915039 C64.11299486 262.10453782 60.46724717 244.19916278 44.84375 227.7265625 C32.62343972 216.17039952 16.84532118 209.85223402 0 210 C-15.74101897 210.81299768 -28.91949276 215.82272359 -41 226 C-41.64324219 226.53109375 -42.28648437 227.0621875 -42.94921875 227.609375 C-57.10551798 240.46138599 -61.24957634 258.48650992 -62.19411087 276.75418091 C-62.28136629 280.5155975 -62.31254228 284.27274422 -62.31884766 288.03515625 C-62.32818133 289.45622302 -62.33835488 290.87728448 -62.34928894 292.29833984 C-62.37621634 296.09891292 -62.39162546 299.89944979 -62.40471697 303.70009232 C-62.42051364 307.69325087 -62.4472496 311.6863371 -62.4727478 315.67944336 C-62.5192465 323.21540078 -62.55612898 330.75137226 -62.58942068 338.28739834 C-62.62784837 346.87773569 -62.67720328 355.46799987 -62.72740483 364.05827522 C-62.83029385 381.70546303 -62.91969197 399.35269569 -63 417 C-72.5715 417.069843 -82.14291081 417.12298406 -91.71461105 417.15543652 C-96.16025616 417.17102054 -100.60572553 417.19212424 -105.05126953 417.22631836 C-109.35013785 417.25917329 -113.64883828 417.27690747 -117.94782257 417.28463173 C-119.57909026 417.29012875 -121.21034988 417.30086155 -122.8415451 417.31719017 C-142.31652319 417.50419393 -158.62614672 412.86666774 -172.98852539 399.27929688 C-187.03716772 385.20894103 -191.2195185 368.2175518 -191.6237793 349.06665039 C-191.66419413 347.45087081 -191.70506436 345.83510257 -191.74635315 344.21934509 C-192.10761439 329.45701544 -192.30410693 314.69058644 -192.45956707 299.92481327 C-192.56609009 290.02159217 -192.71955158 280.12395075 -192.99584961 270.22387695 C-193.23772178 261.55721248 -193.38851545 252.89438977 -193.43355304 244.22438616 C-193.46013942 239.64905549 -193.52776855 235.08384743 -193.70438194 230.51164436 C-194.84939517 199.5752924 -194.84939517 199.5752924 -183.89159542 187.53303403 C-179.22862098 182.73419235 -174.12094871 178.50061278 -168.87071419 174.36635399 C-165.09778227 171.2562943 -162.07329006 167.77685636 -159 164 C-157.3437221 162.28178202 -155.66858444 160.58138951 -153.96875 158.90625 C-153.07542969 158.02066406 -152.18210938 157.13507813 -151.26171875 156.22265625 C-149.42057292 154.40755208 -147.57942708 152.59244792 -145.73828125 150.77734375 C-141.87260237 146.94513395 -138.04206076 143.13588913 -134.5 139 C-129.28319713 132.90859736 -123.4451226 127.40346598 -117.73828125 121.77734375 C-113.87260237 117.94513395 -110.04206076 114.13588913 -106.5 110 C-101.28319713 103.90859736 -95.4451226 98.40346598 -89.73828125 92.77734375 C-85.87260237 88.94513395 -82.04206076 85.13588913 -78.5 81 C-73.28319713 74.90859736 -67.4451226 69.40346598 -61.73828125 63.77734375 C-57.87260237 59.94513395 -54.04206076 56.13588913 -50.5 52 C-45.28319713 45.90859736 -39.4451226 40.40346598 -33.73828125 34.77734375 C-29.25007884 30.32800024 -24.92397219 25.84027886 -20.81396484 21.04101562 C-17.08630675 16.84677314 -13.04848406 12.9465789 -9.0625 9 C-8.18787109 8.12988281 -7.31324219 7.25976562 -6.41210938 6.36328125 C-4.27702551 4.23986451 -2.13962795 2.11883622 0 0 Z " fill="#9A10F5" transform="translate(255,79)"/>
<path d="M0 0 C7.42851512 5.41581535 14.38364158 11.5940612 20.36199951 18.59495544 C25.00632602 24.02878928 29.96993809 29.08976995 35.04516602 34.12033081 C36.53714243 35.59931909 38.02577553 37.08160502 39.51367188 38.56469727 C42.67294765 41.71265249 45.83616023 44.8566327 49 48 C52.67190789 51.64814783 56.34209557 55.29799344 60.00805664 58.95211792 C61.46097908 60.39865069 62.91692281 61.84209167 64.37304688 63.28540039 C68.81672494 67.71272968 73.09207257 72.19114082 77.17553711 76.95068359 C81.01726012 81.26587467 85.17912006 85.27837206 89.28125 89.34375 C90.26368378 90.32176419 91.24581488 91.30008251 92.22766113 92.27868652 C95.31560571 95.35531395 98.40748814 98.42796436 101.5 101.5 C105.08930463 105.06553903 108.67688508 108.63277928 112.26023865 112.20429993 C113.67991157 113.61758629 115.10266999 115.02777111 116.5255127 116.43786621 C120.29705265 120.19521378 124.01880742 123.94470784 127.48632812 127.98632812 C131.44205222 132.59453683 135.73369275 136.84680282 140.04516602 141.12033081 C141.53714243 142.59931909 143.02577553 144.08160502 144.51367188 145.56469727 C147.67294765 148.71265249 150.83616023 151.8566327 154 155 C157.67190789 158.64814783 161.34209557 162.29799344 165.00805664 165.95211792 C166.46097908 167.39865069 167.91692281 168.84209167 169.37304688 170.28540039 C173.93126942 174.82685273 178.33849196 179.41950226 182.52694702 184.30432129 C184.43589555 186.5017734 186.4666665 188.54714362 188.55078125 190.578125 C189.33130859 191.34640625 190.11183594 192.1146875 190.91601562 192.90625 C192.5314663 194.48615286 194.14869354 196.06424096 195.76757812 197.640625 C196.54166016 198.40375 197.31574219 199.166875 198.11328125 199.953125 C198.81235596 200.63536133 199.51143066 201.31759766 200.23168945 202.02050781 C204.42957389 206.71972733 204.43149373 210.9726344 204.3125 217.0859375 C203.74397844 222.38740101 201.22134216 224.83972495 197.5 228.375 C192.44221514 230.72325726 187.48314207 230.97097307 182 230 C177.76620217 227.45041466 174.32635809 224.57372823 170.84765625 221.078125 C170.38443466 220.61444519 169.92121307 220.15076538 169.44395447 219.67303467 C168.47107509 218.6971552 167.50060571 217.71886763 166.5324707 216.73828125 C165.07482952 215.2624831 163.60944593 213.79474672 162.14257812 212.328125 C158.19059527 208.35573403 154.29804552 204.37058802 150.63452148 200.12792969 C147.11133638 196.07221833 143.38457062 192.27265764 139.5625 188.5 C138.87873291 187.82001953 138.19496582 187.14003906 137.49047852 186.43945312 C135.32942945 184.29049074 133.16515274 182.14482721 131 180 C128.14283983 177.16966163 125.28916546 174.33587327 122.4375 171.5 C121.79562744 170.86642578 121.15375488 170.23285156 120.49243164 169.58007812 C116.73969609 165.84741592 113.21647373 161.98752122 109.75756836 157.98242188 C106.83157424 154.68209235 103.7004008 151.59733298 100.5625 148.5 C99.87873291 147.82001953 99.19496582 147.14003906 98.49047852 146.43945312 C96.32942945 144.29049074 94.16515274 142.14482721 92 140 C89.14283983 137.16966163 86.28916546 134.33587327 83.4375 131.5 C82.79562744 130.86642578 82.15375488 130.23285156 81.49243164 129.58007812 C77.73969609 125.84741592 74.21647373 121.98752122 70.75756836 117.98242188 C67.83157424 114.68209235 64.7004008 111.59733298 61.5625 108.5 C60.53684937 107.4800293 60.53684937 107.4800293 59.49047852 106.43945312 C57.32942945 104.29049074 55.16515274 102.14482721 53 100 C50.14283983 97.16966163 47.28916546 94.33587327 44.4375 91.5 C43.79562744 90.86642578 43.15375488 90.23285156 42.49243164 89.58007812 C39.37893323 86.48323378 36.38367107 83.33843228 33.51367188 80.01367188 C29.97057876 75.91116914 26.19936717 72.08866318 22.34375 68.28125 C21.63778687 67.57907349 20.93182373 66.87689697 20.20446777 66.15344238 C17.97208642 63.93315397 15.73647889 61.71616045 13.5 59.5 C10.54909622 56.57590521 7.60166797 53.64836943 4.65625 50.71875 C3.99250366 50.063302 3.32875732 49.407854 2.64489746 48.73254395 C-1.24615207 44.86165402 -4.93752102 40.8765786 -8.51322937 36.71209717 C-15.1515953 29.06765809 -22.15471645 23.75621084 -32.39453125 22.625 C-43.46337277 22.24124818 -50.68234919 24.47988875 -58.875 31.9375 C-62.89479776 35.77930953 -66.69377865 39.80103315 -70.42578125 43.921875 C-77.47737205 51.63043718 -84.88825966 58.96537555 -92.3125 66.3125 C-94.93662172 68.90973063 -97.55718235 71.51048376 -100.17578125 74.11328125 C-101.04944084 74.97449333 -101.04944084 74.97449333 -101.94075012 75.85310364 C-104.89743102 78.79238652 -107.72334397 81.79152972 -110.44799805 84.94799805 C-114.00547534 89.06180263 -117.78784997 92.89871377 -121.65625 96.71875 C-122.7151947 97.77201477 -122.7151947 97.77201477 -123.79553223 98.84655762 C-126.77897375 101.81383766 -129.7684071 104.77505363 -132.75732422 107.73681641 C-134.95490579 109.91618465 -137.14937938 112.09864947 -139.34375 114.28125 C-140.00749634 114.936698 -140.67124268 115.592146 -141.35510254 116.26745605 C-145.16137144 120.0540046 -148.74251194 123.96186558 -152.25012207 128.02526855 C-155.17287336 131.3235837 -158.30221335 134.40524737 -161.4375 137.5 C-162.12126709 138.17998047 -162.80503418 138.85996094 -163.50952148 139.56054688 C-166.39737773 142.43225143 -169.29123075 145.29788438 -172.18457031 148.1640625 C-174.31265725 150.27392787 -176.43762917 152.38689645 -178.5625 154.5 C-179.20437256 155.13357422 -179.84624512 155.76714844 -180.50756836 156.41992188 C-183.62557045 159.52124581 -186.62507199 162.67109359 -189.5 166 C-192.97167571 170.01988623 -196.65873309 173.77008623 -200.4375 177.5 C-201.12126709 178.17998047 -201.80503418 178.85996094 -202.50952148 179.56054688 C-205.39737773 182.43225143 -208.29123075 185.29788438 -211.18457031 188.1640625 C-213.31265725 190.27392787 -215.43762917 192.38689645 -217.5625 194.5 C-218.20437256 195.13357422 -218.84624512 195.76714844 -219.50756836 196.41992188 C-223.31768631 200.20965955 -226.91193192 204.12491349 -230.42373657 208.19219971 C-233.82726588 212.09567243 -237.5287284 215.7132121 -241.1875 219.375 C-241.98091797 220.18066406 -242.77433594 220.98632812 -243.59179688 221.81640625 C-244.35943359 222.58597656 -245.12707031 223.35554687 -245.91796875 224.1484375 C-246.60656982 224.84114746 -247.2951709 225.53385742 -248.00463867 226.24755859 C-252.73947215 230.40596245 -256.96151986 230.43171008 -263.0859375 230.3125 C-268.38740101 229.74397844 -270.83972495 227.22134216 -274.375 223.5 C-276.72325726 218.44221514 -276.97097307 213.48314207 -276 208 C-273.4480017 203.75353845 -270.57272944 200.34315379 -267.04296875 196.8828125 C-266.34389153 196.19153763 -266.34389153 196.19153763 -265.63069153 195.48629761 C-264.15437909 194.02761153 -262.67152161 192.57583882 -261.1875 191.125 C-259.71504475 189.68048277 -258.24421661 188.2344008 -256.77644348 186.78512573 C-255.43790775 185.46416884 -254.09447689 184.14817748 -252.75073242 182.83251953 C-250.68465584 180.70501261 -248.74834004 178.57068356 -246.8215332 176.32373047 C-242.74728389 171.62548273 -238.36996825 167.25594586 -233.95483398 162.87966919 C-232.46285757 161.40068091 -230.97422447 159.91839498 -229.48632812 158.43530273 C-225.79331846 154.75552613 -222.09482888 151.08127373 -218.39648438 147.40686035 C-215.25929696 144.28954371 -212.12426398 141.17008912 -208.99194336 138.04788208 C-207.53902092 136.60134931 -206.08307719 135.15790833 -204.62695312 133.71459961 C-200.80035543 129.90208038 -197.01837766 126.1008118 -193.5 122 C-189.54962984 117.39568343 -185.26171953 113.14864984 -180.95483398 108.87966919 C-179.46285757 107.40068091 -177.97422447 105.91839498 -176.48632812 104.43530273 C-172.79331846 100.75552613 -169.09482888 97.08127373 -165.39648438 93.40686035 C-162.25929696 90.28954371 -159.12426398 87.17008912 -155.99194336 84.04788208 C-154.53902092 82.60134931 -153.08307719 81.15790833 -151.62695312 79.71459961 C-147.18327506 75.28727032 -142.90792743 70.80885918 -138.82446289 66.04931641 C-134.98273988 61.73412533 -130.82087994 57.72162794 -126.71875 53.65625 C-125.73631622 52.67823581 -124.75418512 51.69991749 -123.77233887 50.72131348 C-120.16280682 47.12501016 -116.54779294 43.53423404 -112.93292236 39.94329834 C-109.8661925 36.89644421 -106.80162086 33.84744874 -103.73976135 30.79570007 C-102.32008843 29.38241371 -100.89733001 27.97222889 -99.4744873 26.56213379 C-94.94876184 22.05343872 -90.558384 17.49925307 -86.41584778 12.63430786 C-64.54570368 -12.6103187 -28.0475865 -17.85788451 0 0 Z " fill="#7D06FB" transform="translate(292,26)"/>
</svg>
