<svg xmlns="http://www.w3.org/2000/svg" width="200" height="50" viewBox="0 0 200 50" preserveAspectRatio="none">
  <rect x="0"     y="9"   width="0.6" height="18"   fill="white"/>
  <rect x="1.5"   y="3"   width="0.6" height="30"  fill="white"/>
  <rect x="3"     y="-3"    width="0.6" height="42"  fill="white"/>
  <rect x="4.5"   y="6" width="0.6" height="24"   fill="white"/>
  <rect x="6"     y="-7"    width="0.6" height="50"  fill="white"/>
  <rect x="7.5"   y="1"   width="0.6" height="34"  fill="white"/>
  <rect x="9"     y="-2"  width="0.6" height="40"  fill="white"/>
  <rect x="10.5"  y="7"   width="0.6" height="22"   fill="white"/>
  <rect x="12"    y="-5"    width="0.6" height="46"  fill="white"/>
  <rect x="13.5"  y="0" width="0.6" height="36"  fill="white"/>
  <rect x="15"    y="5"   width="0.6" height="26"  fill="white"/>
  <rect x="16.5"  y="-8"  width="0.6" height="52"  fill="white"/>
  <rect x="18"    y="2" width="0.6" height="32"  fill="white"/>
  <rect x="19.5"  y="-4"  width="0.6" height="44"  fill="white"/>
  <rect x="21"    y="5"   width="0.6" height="26"  fill="white"/>
  <rect x="22.5"  y="-1"   width="0.6" height="38"  fill="white"/>
  <rect x="24"    y="8" width="0.6" height="20"   fill="white"/>
  <rect x="25.5"  y="-6"  width="0.6" height="48"  fill="white"/>
  <rect x="27"    y="1"   width="0.6" height="34"  fill="white"/>
  <rect x="28.5"  y="6" width="0.6" height="24"   fill="white"/>
  <rect x="30"    y="-7"    width="0.6" height="50"  fill="white"/>
  <rect x="31.5"  y="3"   width="0.6" height="30"  fill="white"/>
  <rect x="33"    y="-3"    width="0.6" height="42"  fill="white"/>
  <rect x="34.5"  y="7"   width="0.6" height="22"   fill="white"/>
  <rect x="36"    y="-1"   width="0.6" height="38"  fill="white"/>
  <rect x="37.5"  y="4" width="0.6" height="28"  fill="white"/>
  <rect x="39"    y="-5"    width="0.6" height="46"  fill="white"/>
  <rect x="40.5"  y="8" width="0.6" height="20"   fill="white"/>
  <rect x="42"    y="-9"    width="0.6" height="54"  fill="white"/>
  <rect x="43.5"  y="2" width="0.6" height="32"  fill="white"/>
  <rect x="45"    y="-2"  width="0.6" height="40"  fill="white"/>
  <rect x="46.5"  y="5"   width="0.6" height="26"  fill="white"/>
  <rect x="48"    y="9"   width="0.6" height="18"   fill="white"/>
  <rect x="49.5"  y="3"   width="0.6" height="30"  fill="white"/>
  <rect x="51"    y="-3"    width="0.6" height="42"  fill="white"/>
  <rect x="52.5"  y="6" width="0.6" height="24"   fill="white"/>
  <rect x="54"    y="-7"    width="0.6" height="50"  fill="white"/>
  <rect x="55.5"  y="1"   width="0.6" height="34"  fill="white"/>
  <rect x="57"    y="-2"  width="0.6" height="40"  fill="white"/>
  <rect x="58.5"  y="7"   width="0.6" height="22"   fill="white"/>
  <rect x="60"    y="-5"    width="0.6" height="46"  fill="white"/>
  <rect x="61.5"  y="0" width="0.6" height="36"  fill="white"/>
  <rect x="63"    y="5"   width="0.6" height="26"  fill="white"/>
  <rect x="64.5"  y="-8"  width="0.6" height="52"  fill="white"/>
  <rect x="66"    y="2" width="0.6" height="32"  fill="white"/>
  <rect x="67.5"  y="-4"  width="0.6" height="44"  fill="white"/>
  <rect x="69"    y="5"   width="0.6" height="26"  fill="white"/>
  <rect x="70.5"  y="-1"   width="0.6" height="38"  fill="white"/>
  <rect x="72"    y="8" width="0.6" height="20"   fill="white"/>
  <rect x="73.5"  y="-6"  width="0.6" height="48"  fill="white"/>
  <rect x="75"    y="1"   width="0.6" height="34"  fill="white"/>
  <rect x="76.5"  y="6" width="0.6" height="24"   fill="white"/>
  <rect x="78"    y="-7"    width="0.6" height="50"  fill="white"/>
  <rect x="79.5"  y="3"   width="0.6" height="30"  fill="white"/>
  <rect x="81"    y="-3"    width="0.6" height="42"  fill="white"/>
  <rect x="82.5"  y="7"   width="0.6" height="22"   fill="white"/>
  <rect x="84"    y="-1"   width="0.6" height="38"  fill="white"/>
  <rect x="85.5"  y="4" width="0.6" height="28"  fill="white"/>
  <rect x="87"    y="-5"    width="0.6" height="46"  fill="white"/>
  <rect x="88.5"  y="8" width="0.6" height="20"   fill="white"/>
  <rect x="90"    y="-9"    width="0.6" height="54"  fill="white"/>
  <rect x="91.5"  y="2" width="0.6" height="32"  fill="white"/>
  <rect x="93"    y="-2"  width="0.6" height="40"  fill="white"/>
  <rect x="94.5"  y="5"   width="0.6" height="26"  fill="white"/>
  <rect x="96"    y="9"   width="0.6" height="18"   fill="white"/>
  <rect x="97.5"  y="3"   width="0.6" height="30"  fill="white"/>
  <rect x="99"    y="-3"    width="0.6" height="42"  fill="white"/>
  <rect x="100.5" y="6" width="0.6" height="24"   fill="white"/>
  <rect x="102"   y="-7"    width="0.6" height="50"  fill="white"/>
  <rect x="103.5" y="1"   width="0.6" height="34"  fill="white"/>
  <rect x="105"   y="-2"  width="0.6" height="40"  fill="white"/>
  <rect x="106.5" y="7"   width="0.6" height="22"   fill="white"/>
  <rect x="108"   y="-5"    width="0.6" height="46"  fill="white"/>
  <rect x="109.5" y="0" width="0.6" height="36"  fill="white"/>
  <rect x="111"   y="5"   width="0.6" height="26"  fill="white"/>
  <rect x="112.5" y="-8"  width="0.6" height="52"  fill="white"/>
  <rect x="114"   y="2" width="0.6" height="32"  fill="white"/>
  <rect x="115.5" y="-4"  width="0.6" height="44"  fill="white"/>
  <rect x="117"   y="5"   width="0.6" height="26"  fill="white"/>
  <rect x="118.5" y="-1"   width="0.6" height="38"  fill="white"/>
  <rect x="120"   y="8" width="0.6" height="20"   fill="white"/>
  <rect x="121.5" y="-6"  width="0.6" height="48"  fill="white"/>
  <rect x="123"   y="1"   width="0.6" height="34"  fill="white"/>
  <rect x="124.5" y="6" width="0.6" height="24"   fill="white"/>
  <rect x="126"   y="-7"    width="0.6" height="50"  fill="white"/>
  <rect x="127.5" y="3"   width="0.6" height="30"  fill="white"/>
  <rect x="129"   y="-3"    width="0.6" height="42"  fill="white"/>
  <rect x="130.5" y="7"   width="0.6" height="22"   fill="white"/>
  <rect x="132"   y="-1"   width="0.6" height="38"  fill="white"/>
  <rect x="133.5" y="4" width="0.6" height="28"  fill="white"/>
  <rect x="135"   y="-5"    width="0.6" height="46"  fill="white"/>
  <rect x="136.5" y="8" width="0.6" height="20"   fill="white"/>
  <rect x="138"   y="-9"    width="0.6" height="54"  fill="white"/>
  <rect x="139.5" y="2" width="0.6" height="32"  fill="white"/>
  <rect x="141"   y="-2"  width="0.6" height="40"  fill="white"/>
  <rect x="142.5" y="5"   width="0.6" height="26"  fill="white"/>
  <rect x="144"   y="9"   width="0.6" height="18"   fill="white"/>
  <rect x="145.5" y="3"   width="0.6" height="30"  fill="white"/>
  <rect x="147"   y="-3"    width="0.6" height="42"  fill="white"/>
  <rect x="148.5" y="6" width="0.6" height="24"   fill="white"/>
  <rect x="150"   y="-7"    width="0.6" height="50"  fill="white"/>
  <rect x="151.5" y="1"   width="0.6" height="34"  fill="white"/>
  <rect x="153"   y="-2"  width="0.6" height="40"  fill="white"/>
  <rect x="154.5" y="7"   width="0.6" height="22"   fill="white"/>
  <rect x="156"   y="-5"    width="0.6" height="46"  fill="white"/>
  <rect x="157.5" y="0" width="0.6" height="36"  fill="white"/>
  <rect x="159"   y="5"   width="0.6" height="26"  fill="white"/>
  <rect x="160.5" y="-8"  width="0.6" height="52"  fill="white"/>
  <rect x="162"   y="2" width="0.6" height="32"  fill="white"/>
  <rect x="163.5" y="-4"  width="0.6" height="44"  fill="white"/>
  <rect x="165"   y="5"   width="0.6" height="26"  fill="white"/>
  <rect x="166.5" y="-1"   width="0.6" height="38"  fill="white"/>
  <rect x="168"   y="8" width="0.6" height="20"   fill="white"/>
  <rect x="169.5" y="-6"  width="0.6" height="48"  fill="white"/>
  <rect x="171"   y="1"   width="0.6" height="34"  fill="white"/>
  <rect x="172.5" y="6" width="0.6" height="24"   fill="white"/>
  <rect x="174"   y="-7"    width="0.6" height="50"  fill="white"/>
  <rect x="175.5" y="3"   width="0.6" height="30"  fill="white"/>
  <rect x="177"   y="-3"    width="0.6" height="42"  fill="white"/>
  <rect x="178.5" y="7"   width="0.6" height="22"   fill="white"/>
  <rect x="180"   y="-1"   width="0.6" height="38"  fill="white"/>
  <rect x="181.5" y="4" width="0.6" height="28"  fill="white"/>
  <rect x="183"   y="-5"    width="0.6" height="46"  fill="white"/>
  <rect x="184.5" y="8" width="0.6" height="20"   fill="white"/>
  <rect x="186"   y="-9"    width="0.6" height="54"  fill="white"/>
  <rect x="187.5" y="2" width="0.6" height="32"  fill="white"/>
  <rect x="189"   y="-2"  width="0.6" height="40"  fill="white"/>
  <rect x="190.5" y="5"   width="0.6" height="26"  fill="white"/>
  <rect x="192"   y="9"   width="0.6" height="18"   fill="white"/>
  <rect x="193.5" y="3"   width="0.6" height="30"  fill="white"/>
  <rect x="195"   y="-3"    width="0.6" height="42"  fill="white"/>
  <rect x="196.5" y="6" width="0.6" height="24"   fill="white"/>
  <rect x="198"   y="-7"    width="0.6" height="50"  fill="white"/>
  <rect x="199.5" y="1"   width="0.6" height="34"  fill="white"/>
  <rect x="201"   y="-2"  width="0.6" height="40"  fill="white"/>
  <rect x="202.5" y="7"   width="0.6" height="22"   fill="white"/>
  <rect x="204"   y="-5"    width="0.6" height="46"  fill="white"/>
  <rect x="205.5" y="0" width="0.6" height="36"  fill="white"/>
  <rect x="207"   y="5"   width="0.6" height="26"  fill="white"/>
  <rect x="208.5" y="-8"  width="0.6" height="52"  fill="white"/>
  <rect x="210"   y="2" width="0.6" height="32"  fill="white"/>
  <rect x="211.5" y="-4"  width="0.6" height="44"  fill="white"/>
  <rect x="213"   y="5"   width="0.6" height="26"  fill="white"/>
  <rect x="214.5" y="-1"   width="0.6" height="38"  fill="white"/>
  <rect x="216"   y="8" width="0.6" height="20"   fill="white"/>
  <rect x="217.5" y="-6"  width="0.6" height="48"  fill="white"/>
  <rect x="219"   y="1"   width="0.6" height="34"  fill="white"/>
  <rect x="220.5" y="6" width="0.6" height="24"   fill="white"/>
  <rect x="222"   y="-7"    width="0.6" height="50"  fill="white"/>
  <rect x="223.5" y="3"   width="0.6" height="30"  fill="white"/>
  <rect x="225"   y="-3"    width="0.6" height="42"  fill="white"/>
  <rect x="226.5" y="7"   width="0.6" height="22"   fill="white"/>
  <rect x="228"   y="-1"   width="0.6" height="38"  fill="white"/>
  <rect x="229.5" y="4" width="0.6" height="28"  fill="white"/>
  <rect x="231"   y="-5"    width="0.6" height="46"  fill="white"/>
  <rect x="232.5" y="8" width="0.6" height="20"   fill="white"/>
  <rect x="234"   y="-9"    width="0.6" height="54"  fill="white"/>
  <rect x="235.5" y="2" width="0.6" height="32"  fill="white"/>
  <rect x="237"   y="-2"  width="0.6" height="40"  fill="white"/>
  <rect x="238.5" y="5"   width="0.6" height="26"  fill="white"/>
</svg>
